<?xml version="1.0" standalone="no"?><!DOCTYPE svg PUBLIC "-//W3C//DTD SVG 1.1//EN" "http://www.w3.org/Graphics/SVG/1.1/DTD/svg11.dtd"><svg t="1587976612343" class="icon" viewBox="0 0 1024 1024" version="1.1" xmlns="http://www.w3.org/2000/svg" p-id="1879" width="128" height="128" xmlns:xlink="http://www.w3.org/1999/xlink"><defs><style type="text/css"></style></defs><path d="M933.60766 955.85804 812.270296 955.85804c-11.178032 0-20.222382-9.083889-20.222382-20.221554 0-11.178597 9.044351-20.222577 20.222382-20.222577l101.113958 0 0-101.109816c0-11.177574 9.045374-20.221554 20.223406-20.221554 11.138121 0 20.222382 9.04398 20.222382 20.221554l0 121.331369C953.829019 946.774151 944.744758 955.85804 933.60766 955.85804zM933.60766 713.195302c-11.178032 0-20.223406-9.084912-20.223406-20.222577L913.384254 571.642378c0-11.177574 9.045374-20.222577 20.223406-20.222577 11.138121 0 20.222382 9.045003 20.222382 20.222577L953.830042 692.972724C953.829019 704.110389 944.744758 713.195302 933.60766 713.195302zM933.60766 470.532563c-11.178032 0-20.223406-9.083889-20.223406-20.221554L913.384254 328.97964c0-11.17655 9.045374-20.221554 20.223406-20.221554 11.138121 0 20.222382 9.045003 20.222382 20.221554l0 121.331369C953.829019 461.448674 944.744758 470.532563 933.60766 470.532563zM933.60766 227.870848c-11.178032 0-20.223406-9.083889-20.223406-20.222577l0-101.108792-101.113958 0c-11.178032 0-20.222382-9.083889-20.222382-20.221554 0-11.177574 9.044351-20.221554 20.222382-20.221554l121.336341 0c11.138121 0 20.222382 9.04398 20.222382 20.221554l0 121.330346C953.829019 218.786958 944.744758 227.870848 933.60766 227.870848zM690.933955 955.85804 569.598638 955.85804c-11.178032 0-20.223406-9.083889-20.223406-20.221554 0-11.178597 9.045374-20.222577 20.223406-20.222577L690.933955 915.413909c11.138121 0 20.223406 9.04398 20.223406 20.222577C711.157361 946.774151 702.072076 955.85804 690.933955 955.85804zM690.933955 106.539478 569.598638 106.539478c-11.178032 0-20.223406-9.083889-20.223406-20.221554 0-11.177574 9.045374-20.221554 20.223406-20.221554L690.933955 66.096371c11.138121 0 20.223406 9.04398 20.223406 20.221554C711.157361 97.455589 702.072076 106.539478 690.933955 106.539478zM448.262297 106.539478 326.925956 106.539478c-11.177008 0-20.222382-9.083889-20.222382-20.221554 0-11.177574 9.045374-20.221554 20.222382-20.221554l121.336341 0c11.138121 0 20.222382 9.04398 20.222382 20.221554C468.484679 97.455589 459.399395 106.539478 448.262297 106.539478zM205.589615 955.85804 84.254298 955.85804c-11.178032 0-20.222382-9.083889-20.222382-20.221554L64.031916 814.305117c0-11.177574 9.044351-20.221554 20.222382-20.221554 11.157565 0 20.222382 9.04398 20.222382 20.221554l0 101.109816 101.113958 0c11.157565 0 20.222382 9.04398 20.222382 20.222577C225.813021 946.774151 216.748203 955.85804 205.589615 955.85804zM205.589615 106.539478l-101.113958 0 0 101.108792c0 11.137665-9.064818 20.222577-20.222382 20.222577-11.178032 0-20.222382-9.083889-20.222382-20.222577L64.030892 86.317924c0-11.177574 9.044351-20.221554 20.222382-20.221554l121.336341 0c11.157565 0 20.222382 9.04398 20.222382 20.221554C225.813021 97.455589 216.748203 106.539478 205.589615 106.539478zM84.254298 308.758086c11.157565 0 20.222382 9.045003 20.222382 20.221554l0 121.331369c0 11.137665-9.064818 20.221554-20.222382 20.221554-11.178032 0-20.222382-9.083889-20.222382-20.221554L64.031916 328.97964C64.030892 317.80309 73.076266 308.758086 84.254298 308.758086zM84.254298 551.419801c11.157565 0 20.222382 9.045003 20.222382 20.222577L104.47668 692.972724c0 11.137665-9.064818 20.222577-20.222382 20.222577-11.178032 0-20.222382-9.084912-20.222382-20.222577L64.031916 571.642378C64.030892 560.464805 73.076266 551.419801 84.254298 551.419801zM700.49305 661.534711l-40.998396 40.996716c-7.504212 7.502881-19.748572 7.502881-27.291671 0L516.118465 586.453712 400.035993 702.531428c-7.544122 7.502881-19.788483 7.502881-27.292695 0l-40.998396-40.996716c-7.504212-7.503904-7.504212-19.747763 0-27.290553l116.122382-116.079762L331.744902 402.125567c-7.504212-7.582699-7.504212-19.786649 0-27.330462l40.998396-40.956807c7.504212-7.543813 19.748572-7.543813 27.292695 0l116.082471 116.077715 116.084518-116.077715c7.543099-7.543813 19.787459-7.543813 27.291671 0l40.998396 40.956807c7.504212 7.543813 7.504212 19.747763 0 27.330462L584.369645 518.164397l116.123405 116.079762C707.997262 641.786948 707.997262 654.030807 700.49305 661.534711zM326.925956 915.413909l121.336341 0c11.138121 0 20.222382 9.04398 20.222382 20.222577 0 11.137665-9.084261 20.221554-20.222382 20.221554L326.925956 955.85804c-11.177008 0-20.222382-9.083889-20.222382-20.221554C306.703574 924.45789 315.747925 915.413909 326.925956 915.413909z" p-id="1880"></path></svg>